<svg width="25" height="24" viewBox="0 0 25 24" fill="none" xmlns="http://www.w3.org/2000/svg">
<path d="M17.703 16.9894L23.9437 13.3318C23.9955 12.8951 24.0184 12.444 24.0184 11.9929C24.0184 10.7315 23.8259 9.51611 23.461 8.37256L3.25635 20.2075C5.44289 22.5434 8.56036 24.0002 12.0111 24.0002C16.9876 24.0002 21.2544 20.9775 23.076 16.6676L18.9328 19.0926C18.7403 19.2047 18.5305 19.2593 18.3208 19.2593C17.9042 19.2593 17.4962 19.0409 17.2663 18.6559C16.9273 18.0755 17.1255 17.3285 17.703 16.9894Z" fill="#5323DE"/>
<path d="M0.00380037 11.9927C-0.0105659 12.4524 0.0152934 12.9294 0.0899978 13.4236L13.5856 5.51642C13.781 5.40437 13.9908 5.34978 14.2005 5.34978C14.6171 5.34978 15.0251 5.56814 15.255 5.95028C15.594 6.53355 15.3987 7.2806 14.8183 7.62251L0.658901 15.9147C0.943352 16.7422 1.31687 17.5266 1.7651 18.2593L22.4841 6.12268C21.1969 3.82121 19.1712 1.99095 16.729 0.94796L7.76444 6.20026C7.56906 6.31231 7.35932 6.3669 7.14669 6.3669C6.73007 6.3669 6.32495 6.15141 6.09796 5.76352C5.75604 5.18313 5.95142 4.43896 6.53182 4.09704L13.4018 0.0658733C13.3816 0.0601268 13.3615 0.0486338 13.3414 0.0457605C5.71783 -0.586573 0.207801 5.4331 0.00380037 11.9927Z" fill="#5323DE"/>
</svg>
